<svg width="32" height="32" viewBox="0 0 32 32" fill="none" xmlns="http://www.w3.org/2000/svg">
<g clip-path="url(#clip0_401_195)">
<path d="M20.6087 18.8281C20.1729 16.6825 18.272 15.0625 15.9996 15.0625C13.7273 15.0625 11.8264 16.6824 11.3906 18.8281H20.6087Z" fill="#583FBC"/>
<path d="M24.1472 20.7031H7.08475C6.4915 20.7031 6.04763 21.2472 6.16625 21.8284C6.22956 22.1385 6.29112 22.4349 6.342 22.6703L6.4125 22.9971C7.10681 26.2153 7.56556 28.3413 8.23131 29.7161C8.99625 31.2956 10.1116 32 11.8478 32C12.5601 32 13.5889 31.9177 14.2952 31.2061C15.2066 30.2877 15.1958 28.8483 15.1778 26.4637C15.1751 26.1007 15.1722 25.7256 15.1721 25.3213C15.172 24.8758 15.5136 24.4914 15.9586 24.4697C16.4334 24.4467 16.8271 24.8264 16.8271 25.2962C16.8271 25.7102 16.8242 26.0933 16.8214 26.4637C16.8034 28.8484 16.7926 30.2878 17.7041 31.2061C18.4104 31.9177 19.4391 32 20.1515 32C21.8876 32 23.003 31.2956 23.7679 29.7161C24.4337 28.3413 24.8924 26.2153 25.5868 22.9971L25.6572 22.6706C25.7081 22.4351 25.7696 22.1386 25.8329 21.8284C25.9516 21.2472 25.5077 20.7031 24.9144 20.7031H24.1472Z" fill="#583FBC"/>
<path d="M6.75208 13.1719H25.2476C25.6055 13.1719 25.9321 12.9682 26.0896 12.6468C26.902 10.9885 27.3018 9.14129 27.3121 6.99954V6.99948C27.321 5.10735 26.5875 3.33023 25.247 1.99554C23.9381 0.692354 22.2117 -0.0145839 20.3835 0.000291079C19.3405 0.00941608 18.3393 0.247291 17.4081 0.707479C16.5132 1.14973 15.4866 1.14973 14.5916 0.707479C13.6603 0.247354 12.6593 0.00941608 11.6165 0.000353579C9.78714 -0.0162714 8.06158 0.692479 6.75276 1.9956C5.41226 3.33029 4.67883 5.10742 4.6877 6.9996C4.69795 9.14135 5.09783 10.9885 5.9102 12.6469C6.06758 12.9682 6.3942 13.1719 6.75208 13.1719Z" fill="#583FBC"/>
</g>
<defs>
<clipPath id="clip0_401_195">
<rect width="32" height="32" fill="white"/>
</clipPath>
</defs>
</svg>
