<svg width="30" height="33" viewBox="0 0 30 33" fill="none" xmlns="http://www.w3.org/2000/svg">
<path d="M27.2181 3.06334C24.4385 0.522588 21.2921 0.526054 18.9402 1.09617C16.5972 1.66404 14.1388 1.66404 11.7957 1.09617C9.44386 0.526054 6.29747 0.522588 3.51775 3.06334C-1.74901 7.87747 2.48911 16.4771 3.76468 17.9583C5.04026 19.4396 5.08133 21.4146 5.98659 25.447C6.89184 29.4794 8.04387 33.306 10.3481 32.73C12.6523 32.154 13.2695 29.356 13.8456 25.6116C13.8852 25.3541 13.9265 25.1126 13.9691 24.8855C14.262 23.3287 16.4738 23.3287 16.7667 24.8855C16.8093 25.1124 16.8507 25.3541 16.8904 25.6116C17.4664 29.356 18.0837 32.154 20.3879 32.73C22.6921 33.306 23.8441 29.4794 24.7494 25.447C25.6546 21.4146 25.6957 19.4396 26.9713 17.9583C28.2469 16.4771 32.485 7.87747 27.2181 3.06334ZM11.1313 4.93364C11.0676 5.40672 10.6331 5.73909 10.1604 5.6774C9.99111 5.65643 6.23491 5.24175 5.17958 9.34245C5.0789 9.73338 4.72695 9.99314 4.34104 9.99314C4.26947 9.99314 4.19686 9.98431 4.12443 9.96559C3.66106 9.84637 3.38206 9.37398 3.50128 8.91061C4.65764 4.41724 8.51157 3.70763 10.3879 3.95942C10.8622 4.02319 11.1949 4.45935 11.1313 4.93364Z" fill="white"/>
</svg>
